<?xml version="1.0" encoding="UTF-8" standalone="no"?><!-- Generator: Gravit.io --><svg xmlns="http://www.w3.org/2000/svg" xmlns:xlink="http://www.w3.org/1999/xlink" style="isolation:isolate" viewBox="1704.181 819.667 411.024 411.024" width="411.024pt" height="411.024pt"><g><rect x="1704.181" y="819.667" width="411.024" height="411.024" transform="matrix(1,0,0,1,0,0)" fill="none"/><g><path d=" M 2078.653 950.22 C 2078.462 948.285 2078.221 946.357 2077.92 944.427 C 2077.059 939.125 2075.948 933.945 2074.469 928.889 C 2072.989 923.709 2070.892 918.778 2068.425 913.968 C 2066.207 909.406 2063.371 905.088 2060.163 901.142 C 2056.958 897.072 2053.258 893.498 2049.189 890.413 C 2044.75 887.085 2040.063 884.249 2035.006 881.905 C 2029.95 879.685 2024.527 877.959 2019.098 876.972 C 2012.193 875.615 2005.042 875 1998.013 875 C 1990.985 875 1983.954 875.615 1977.049 876.972 C 1971.623 877.959 1966.32 879.685 1961.264 881.905 C 1956.207 884.249 1951.399 887.085 1947.081 890.413 C 1943.015 893.498 1939.189 897.072 1935.984 901.142 C 1932.902 905.088 1930.066 909.406 1927.722 913.968 C 1925.255 918.778 1923.283 923.709 1921.804 928.889 C 1920.201 933.945 1919.088 939.125 1918.35 944.427 C 1917.486 949.976 1916.994 955.525 1916.87 961.197 C 1916.87 964.035 1916.747 966.748 1916.624 969.584 C 1916.624 972.543 1916.501 975.625 1916.501 978.71 C 1916.501 978.833 1916.501 978.833 1916.501 978.833 L 1916.501 996.959 C 1916.501 996.959 1916.501 996.959 1916.501 996.959 C 1916.501 1000.044 1916.624 1003.003 1916.624 1005.962 C 1916.747 1008.675 1916.87 1011.265 1916.87 1013.978 C 1917.117 1019.65 1917.609 1025.198 1918.473 1030.873 C 1919.211 1036.053 1920.322 1041.106 1921.681 1046.163 C 1923.16 1051.343 1925.009 1056.399 1927.476 1061.209 C 1929.817 1065.771 1932.532 1070.087 1935.738 1074.156 C 1938.943 1078.225 1942.643 1081.925 1946.712 1085.007 C 1951.151 1088.461 1955.961 1091.297 1960.895 1093.518 C 1966.074 1095.862 1971.374 1097.464 1976.803 1098.574 C 1983.831 1099.808 1990.859 1100.423 1998.013 1100.423 L 1998.013 1100.423 C 2005.165 1100.423 2012.319 1099.808 2019.347 1098.449 C 2024.896 1097.464 2030.199 1095.862 2035.255 1093.518 C 2040.312 1091.297 2045.119 1088.338 2049.435 1085.007 C 2053.504 1081.802 2057.204 1078.225 2060.412 1074.033 C 2063.494 1070.087 2066.207 1065.771 2068.548 1061.209 C 2071.018 1056.399 2072.989 1051.466 2074.469 1046.286 C 2075.948 1041.232 2077.059 1036.053 2077.92 1030.75 C 2078.784 1025.198 2079.154 1019.65 2079.277 1013.978 C 2079.402 1011.265 2079.525 1008.675 2079.525 1005.962 C 2079.648 1003.003 2079.648 1000.044 2079.772 996.959 C 2079.772 996.959 2079.772 996.959 2079.772 996.959 L 2079.772 978.833 C 2079.772 978.833 2079.772 978.833 2079.772 978.71 C 2079.753 978.247 2079.738 977.783 2079.724 977.32 L 2043.389 958.44 Q 2043.512 960.762 2043.54 963.171 L 2043.54 963.171 L 2043.54 963.171 Q 2044.132 971.163 2044.132 979.302 L 2044.132 979.302 L 2044.132 979.302 Q 2044.132 987.441 2044.132 995.579 L 2044.132 995.579 L 2044.132 995.579 Q 2044.132 1003.718 2043.54 1012.302 L 2043.54 1012.302 L 2043.54 1012.302 Q 2043.245 1038.642 2032.144 1053.736 L 2032.144 1053.736 L 2032.144 1053.736 Q 2021.047 1068.83 1997.964 1068.83 L 1997.964 1068.83 L 1997.964 1068.83 L 1997.964 1068.83 Q 1975.467 1068.83 1964.223 1053.736 L 1964.223 1053.736 L 1964.223 1053.736 Q 1952.976 1038.642 1952.384 1012.302 L 1952.384 1012.302 L 1952.384 1012.302 Q 1952.384 1003.718 1952.237 995.579 L 1952.237 995.579 L 1952.237 995.579 Q 1952.088 987.441 1952.237 979.302 L 1952.237 979.302 L 1952.237 979.302 Q 1952.384 971.163 1952.384 963.171 L 1952.384 963.171 L 1952.384 963.171 Q 1952.976 937.423 1964.073 921.884 L 1964.073 921.884 L 1964.073 921.884 Q 1975.174 906.347 1997.964 906.347 L 1997.964 906.347 L 1997.964 906.347 Q 2021.047 906.347 2032.144 921.884 L 2032.144 921.884 L 2032.144 921.884 Q 2034.21 924.775 2035.899 928.017 L 2078.653 950.22 Z " fill-rule="evenodd" fill="rgb(255,255,255)"/><path d=" M 1818.906 1027.296 L 1781.541 1079.212 L 1780.679 1081.184 C 1780.679 1081.184 1780.679 1081.184 1780.679 1081.184 C 1780.184 1081.925 1779.938 1082.789 1779.815 1083.651 C 1779.569 1084.515 1779.569 1085.379 1779.569 1086.241 C 1779.569 1087.843 1779.815 1089.449 1780.307 1090.805 C 1780.802 1092.285 1781.664 1093.641 1782.651 1094.874 C 1783.761 1096.108 1785.118 1097.215 1786.72 1097.956 C 1788.2 1098.572 1789.928 1098.944 1791.654 1098.944 L 1807.559 1098.944 C 1809.657 1098.944 1811.631 1098.572 1813.48 1097.956 C 1815.329 1097.341 1817.057 1096.231 1818.288 1094.751 C 1819.029 1094.01 1819.77 1093.272 1820.508 1092.408 C 1821.003 1091.913 1821.495 1091.297 1821.865 1090.679 C 1821.988 1090.679 1821.988 1090.556 1822.113 1090.433 L 1879.21 1010.896 C 1879.21 1010.772 1879.333 1010.772 1879.333 1010.647 C 1880.812 1008.306 1882.292 1006.085 1883.771 1003.741 C 1885.497 1001.029 1887.099 998.316 1888.828 995.726 C 1890.553 992.89 1892.156 989.931 1893.512 986.849 C 1895.118 983.518 1896.474 979.941 1897.831 976.49 C 1899.061 972.79 1900.048 968.966 1900.666 965.143 C 1901.282 960.828 1901.651 956.512 1901.651 952.197 C 1901.651 947.509 1901.282 942.699 1900.418 938.014 C 1899.556 933.327 1898.323 928.765 1896.72 924.327 C 1894.992 919.886 1892.897 915.57 1890.307 911.501 C 1887.717 907.309 1884.633 903.362 1881.181 899.785 C 1877.727 896.211 1873.781 893.003 1869.712 890.29 C 1865.15 887.331 1860.34 884.741 1855.406 882.77 C 1850.352 880.672 1845.05 879.193 1839.747 878.205 C 1833.334 877.095 1826.798 876.48 1820.385 876.48 C 1813.849 876.48 1807.316 877.095 1800.903 878.328 C 1795.474 879.316 1790.174 880.918 1785.241 883.016 C 1780.184 885.234 1775.374 887.823 1770.935 890.908 C 1766.866 893.744 1763.043 897.072 1759.715 900.649 C 1756.386 904.226 1753.425 908.173 1750.835 912.365 C 1748.245 916.434 1746.147 920.75 1744.545 925.188 C 1742.942 929.63 1741.709 934.191 1740.847 938.878 C 1739.983 943.44 1739.614 948.127 1739.614 952.812 C 1739.614 957.623 1739.983 962.307 1740.847 966.995 C 1741.709 971.679 1743.065 976.12 1744.794 980.559 C 1746.396 984.874 1748.617 989.067 1751.081 993.013 C 1753.671 997.082 1756.63 1000.782 1759.961 1004.236 C 1763.289 1007.811 1766.989 1010.896 1770.935 1013.608 C 1775.128 1016.444 1779.569 1018.911 1784.377 1020.883 C 1789.064 1022.98 1793.995 1024.46 1799.051 1025.447 C 1804.6 1026.678 1810.398 1027.296 1816.193 1027.296 C 1817.057 1027.296 1818.044 1027.296 1818.906 1027.296 Z  M 1820.335 997.205 L 1820.335 997.205 L 1820.335 997.205 Q 1832.766 997.205 1843.272 991.73 L 1843.272 991.73 L 1843.272 991.73 Q 1853.778 986.257 1859.994 976.34 L 1859.994 976.34 L 1859.994 976.34 Q 1866.208 966.426 1866.208 952.516 L 1866.208 952.516 L 1866.208 952.516 Q 1866.208 938.606 1859.994 928.692 L 1859.994 928.692 L 1859.994 928.692 Q 1853.778 918.778 1843.272 913.303 L 1843.272 913.303 L 1843.272 913.303 Q 1832.766 907.827 1820.335 907.827 L 1820.335 907.827 L 1820.335 907.827 Q 1808.201 907.827 1797.841 913.303 L 1797.841 913.303 L 1797.841 913.303 Q 1787.482 918.778 1781.268 928.692 L 1781.268 928.692 L 1781.268 928.692 Q 1775.054 938.606 1775.054 952.516 L 1775.054 952.516 L 1775.054 952.516 Q 1775.054 966.426 1781.268 976.34 L 1781.268 976.34 L 1781.268 976.34 Q 1787.482 986.257 1797.841 991.73 L 1797.841 991.73 L 1797.841 991.73 Q 1808.201 997.205 1820.335 997.205 Z " fill-rule="evenodd" fill="rgb(255,255,255)"/><path d=" M 1787.885 1175.357 L 1787.885 1175.357 L 1787.885 1175.357 Q 1779.66 1175.357 1773.73 1172.63 L 1773.73 1172.63 L 1773.73 1172.63 Q 1767.8 1169.903 1764.553 1164.665 L 1764.553 1164.665 L 1764.553 1164.665 Q 1761.307 1159.427 1760.961 1151.896 L 1760.961 1151.896 L 1760.961 1151.896 Q 1760.874 1148.173 1760.874 1143.974 L 1760.874 1143.974 L 1760.874 1143.974 Q 1760.874 1139.775 1760.961 1135.966 L 1760.961 1135.966 L 1760.961 1135.966 Q 1761.307 1128.607 1764.597 1123.5 L 1764.597 1123.5 L 1764.597 1123.5 Q 1767.886 1118.392 1773.86 1115.708 L 1773.86 1115.708 L 1773.86 1115.708 Q 1779.833 1113.024 1787.885 1113.024 L 1787.885 1113.024 L 1787.885 1113.024 Q 1794.378 1113.024 1799.399 1114.626 L 1799.399 1114.626 L 1799.399 1114.626 Q 1804.42 1116.228 1807.84 1118.911 L 1807.84 1118.911 L 1807.84 1118.911 Q 1811.259 1121.595 1813.077 1124.798 L 1813.077 1124.798 L 1813.077 1124.798 Q 1814.895 1128.001 1814.982 1131.118 L 1814.982 1131.118 L 1814.982 1131.118 Q 1814.982 1131.897 1814.419 1132.417 L 1814.419 1132.417 L 1814.419 1132.417 Q 1813.857 1132.936 1813.077 1132.936 L 1813.077 1132.936 L 1800.438 1132.936 L 1800.438 1132.936 Q 1799.485 1132.936 1799.009 1132.633 L 1799.009 1132.633 L 1799.009 1132.633 Q 1798.533 1132.33 1798.187 1131.724 L 1798.187 1131.724 L 1798.187 1131.724 Q 1797.581 1130.426 1796.412 1128.997 L 1796.412 1128.997 L 1796.412 1128.997 Q 1795.243 1127.569 1793.209 1126.53 L 1793.209 1126.53 L 1793.209 1126.53 Q 1791.174 1125.491 1787.885 1125.491 L 1787.885 1125.491 L 1787.885 1125.491 Q 1783.036 1125.491 1780.18 1128.088 L 1780.18 1128.088 L 1780.18 1128.088 Q 1777.323 1130.685 1777.063 1136.399 L 1777.063 1136.399 L 1777.063 1136.399 Q 1776.803 1143.844 1777.063 1151.463 L 1777.063 1151.463 L 1777.063 1151.463 Q 1777.323 1157.523 1780.266 1160.207 L 1780.266 1160.207 L 1780.266 1160.207 Q 1783.21 1162.89 1788.144 1162.89 L 1788.144 1162.89 L 1788.144 1162.89 Q 1791.347 1162.89 1793.901 1161.765 L 1793.901 1161.765 L 1793.901 1161.765 Q 1796.455 1160.639 1797.927 1158.259 L 1797.927 1158.259 L 1797.927 1158.259 Q 1799.399 1155.878 1799.399 1152.155 L 1799.399 1152.155 L 1799.399 1150.51 L 1791.261 1150.51 L 1791.261 1150.51 Q 1790.309 1150.51 1789.703 1149.861 L 1789.703 1149.861 L 1789.703 1149.861 Q 1789.097 1149.212 1789.097 1148.26 L 1789.097 1148.26 L 1789.097 1141.853 L 1789.097 1141.853 Q 1789.097 1140.901 1789.703 1140.252 L 1789.703 1140.252 L 1789.703 1140.252 Q 1790.309 1139.602 1791.261 1139.602 L 1791.261 1139.602 L 1813.077 1139.602 L 1813.077 1139.602 Q 1814.029 1139.602 1814.636 1140.252 L 1814.636 1140.252 L 1814.636 1140.252 Q 1815.242 1140.901 1815.242 1141.853 L 1815.242 1141.853 L 1815.242 1151.722 L 1815.242 1151.722 Q 1815.242 1159.168 1811.865 1164.449 L 1811.865 1164.449 L 1811.865 1164.449 Q 1808.489 1169.73 1802.299 1172.543 L 1802.299 1172.543 L 1802.299 1172.543 Q 1796.109 1175.357 1787.885 1175.357 Z  M 1838.53 1174.491 L 1827.362 1174.491 L 1827.362 1174.491 Q 1826.41 1174.491 1825.804 1173.842 L 1825.804 1173.842 L 1825.804 1173.842 Q 1825.198 1173.193 1825.198 1172.327 L 1825.198 1172.327 L 1825.198 1116.054 L 1825.198 1116.054 Q 1825.198 1115.102 1825.804 1114.496 L 1825.804 1114.496 L 1825.804 1114.496 Q 1826.41 1113.89 1827.362 1113.89 L 1827.362 1113.89 L 1850.91 1113.89 L 1850.91 1113.89 Q 1862.164 1113.89 1868.57 1119.041 L 1868.57 1119.041 L 1868.57 1119.041 Q 1874.977 1124.192 1874.977 1133.629 L 1874.977 1133.629 L 1874.977 1133.629 Q 1874.977 1139.775 1872.034 1144.017 L 1872.034 1144.017 L 1872.034 1144.017 Q 1869.09 1148.26 1864.242 1150.424 L 1864.242 1150.424 L 1876.102 1171.721 L 1876.102 1171.721 Q 1876.362 1172.24 1876.362 1172.673 L 1876.362 1172.673 L 1876.362 1172.673 Q 1876.362 1173.366 1875.799 1173.928 L 1875.799 1173.928 L 1875.799 1173.928 Q 1875.237 1174.491 1874.544 1174.491 L 1874.544 1174.491 L 1863.03 1174.491 L 1863.03 1174.491 Q 1861.385 1174.491 1860.606 1173.669 L 1860.606 1173.669 L 1860.606 1173.669 Q 1859.827 1172.846 1859.48 1172.154 L 1859.48 1172.154 L 1849.611 1153.108 L 1840.781 1153.108 L 1840.781 1172.327 L 1840.781 1172.327 Q 1840.781 1173.193 1840.131 1173.842 L 1840.131 1173.842 L 1840.131 1173.842 Q 1839.482 1174.491 1838.53 1174.491 L 1838.53 1174.491 Z  M 1840.781 1125.924 L 1840.781 1140.814 L 1850.737 1140.814 L 1850.737 1140.814 Q 1854.805 1140.814 1856.84 1138.823 L 1856.84 1138.823 L 1856.84 1138.823 Q 1858.874 1136.832 1858.874 1133.456 L 1858.874 1133.456 L 1858.874 1133.456 Q 1858.874 1130.079 1856.927 1128.001 L 1856.927 1128.001 L 1856.927 1128.001 Q 1854.979 1125.924 1850.737 1125.924 L 1850.737 1125.924 L 1840.781 1125.924 Z  M 1892.205 1174.491 L 1881.556 1174.491 L 1881.556 1174.491 Q 1880.864 1174.491 1880.301 1173.928 L 1880.301 1173.928 L 1880.301 1173.928 Q 1879.738 1173.366 1879.738 1172.673 L 1879.738 1172.673 L 1879.738 1172.673 Q 1879.738 1172.24 1879.825 1171.894 L 1879.825 1171.894 L 1900.17 1116.314 L 1900.17 1116.314 Q 1900.429 1115.362 1901.252 1114.626 L 1901.252 1114.626 L 1901.252 1114.626 Q 1902.074 1113.89 1903.546 1113.89 L 1903.546 1113.89 L 1916.359 1113.89 L 1916.359 1113.89 Q 1917.831 1113.89 1918.653 1114.626 L 1918.653 1114.626 L 1918.653 1114.626 Q 1919.475 1115.362 1919.735 1116.314 L 1919.735 1116.314 L 1939.993 1171.894 L 1939.993 1171.894 Q 1940.166 1172.24 1940.166 1172.673 L 1940.166 1172.673 L 1940.166 1172.673 Q 1940.166 1173.366 1939.604 1173.928 L 1939.604 1173.928 L 1939.604 1173.928 Q 1939.041 1174.491 1938.262 1174.491 L 1938.262 1174.491 L 1927.613 1174.491 L 1927.613 1174.491 Q 1926.315 1174.491 1925.665 1173.842 L 1925.665 1173.842 L 1925.665 1173.842 Q 1925.016 1173.193 1924.843 1172.673 L 1924.843 1172.673 L 1921.467 1163.843 L 1898.352 1163.843 L 1895.062 1172.673 L 1895.062 1172.673 Q 1894.889 1173.193 1894.283 1173.842 L 1894.283 1173.842 L 1894.283 1173.842 Q 1893.677 1174.491 1892.205 1174.491 L 1892.205 1174.491 Z  M 1909.953 1128.521 L 1901.901 1151.376 L 1918.004 1151.376 L 1909.953 1128.521 Z  M 1972.458 1175.357 L 1972.458 1175.357 L 1972.458 1175.357 Q 1964.58 1175.357 1958.736 1172.803 L 1958.736 1172.803 L 1958.736 1172.803 Q 1952.893 1170.249 1949.689 1164.925 L 1949.689 1164.925 L 1949.689 1164.925 Q 1946.486 1159.601 1946.486 1151.376 L 1946.486 1151.376 L 1946.486 1116.054 L 1946.486 1116.054 Q 1946.486 1115.102 1947.092 1114.496 L 1947.092 1114.496 L 1947.092 1114.496 Q 1947.698 1113.89 1948.65 1113.89 L 1948.65 1113.89 L 1959.818 1113.89 L 1959.818 1113.89 Q 1960.771 1113.89 1961.42 1114.496 L 1961.42 1114.496 L 1961.42 1114.496 Q 1962.069 1115.102 1962.069 1116.054 L 1962.069 1116.054 L 1962.069 1151.29 L 1962.069 1151.29 Q 1962.069 1156.917 1964.753 1159.73 L 1964.753 1159.73 L 1964.753 1159.73 Q 1967.437 1162.544 1972.372 1162.544 L 1972.372 1162.544 L 1972.372 1162.544 Q 1977.22 1162.544 1979.947 1159.73 L 1979.947 1159.73 L 1979.947 1159.73 Q 1982.674 1156.917 1982.674 1151.29 L 1982.674 1151.29 L 1982.674 1116.054 L 1982.674 1116.054 Q 1982.674 1115.102 1983.323 1114.496 L 1983.323 1114.496 L 1983.323 1114.496 Q 1983.972 1113.89 1984.838 1113.89 L 1984.838 1113.89 L 1996.093 1113.89 L 1996.093 1113.89 Q 1996.958 1113.89 1997.608 1114.496 L 1997.608 1114.496 L 1997.608 1114.496 Q 1998.257 1115.102 1998.257 1116.054 L 1998.257 1116.054 L 1998.257 1151.376 L 1998.257 1151.376 Q 1998.257 1159.601 1995.054 1164.925 L 1995.054 1164.925 L 1995.054 1164.925 Q 1991.851 1170.249 1986.05 1172.803 L 1986.05 1172.803 L 1986.05 1172.803 Q 1980.25 1175.357 1972.458 1175.357 Z  M 2032.367 1175.357 L 2032.367 1175.357 L 2032.367 1175.357 Q 2023.709 1175.357 2017.995 1172.89 L 2017.995 1172.89 L 2017.995 1172.89 Q 2012.282 1170.422 2009.338 1166.44 L 2009.338 1166.44 L 2009.338 1166.44 Q 2006.395 1162.458 2006.222 1157.956 L 2006.222 1157.956 L 2006.222 1157.956 Q 2006.222 1157.263 2006.784 1156.7 L 2006.784 1156.7 L 2006.784 1156.7 Q 2007.347 1156.138 2008.126 1156.138 L 2008.126 1156.138 L 2019.034 1156.138 L 2019.034 1156.138 Q 2020.246 1156.138 2020.896 1156.571 L 2020.896 1156.571 L 2020.896 1156.571 Q 2021.545 1157.003 2022.064 1157.696 L 2022.064 1157.696 L 2022.064 1157.696 Q 2022.757 1158.995 2024.012 1160.207 L 2024.012 1160.207 L 2024.012 1160.207 Q 2025.268 1161.419 2027.345 1162.154 L 2027.345 1162.154 L 2027.345 1162.154 Q 2029.423 1162.89 2032.367 1162.89 L 2032.367 1162.89 L 2032.367 1162.89 Q 2037.388 1162.89 2039.942 1161.332 L 2039.942 1161.332 L 2039.942 1161.332 Q 2042.496 1159.774 2042.496 1157.09 L 2042.496 1157.09 L 2042.496 1157.09 Q 2042.496 1155.099 2041.11 1153.887 L 2041.11 1153.887 L 2041.11 1153.887 Q 2039.725 1152.675 2036.652 1151.679 L 2036.652 1151.679 L 2036.652 1151.679 Q 2033.579 1150.684 2028.471 1149.645 L 2028.471 1149.645 L 2028.471 1149.645 Q 2021.891 1148.26 2017.26 1146.052 L 2017.26 1146.052 L 2017.26 1146.052 Q 2012.628 1143.844 2010.204 1140.252 L 2010.204 1140.252 L 2010.204 1140.252 Q 2007.78 1136.659 2007.78 1131.291 L 2007.78 1131.291 L 2007.78 1131.291 Q 2007.78 1126.01 2010.767 1121.855 L 2010.767 1121.855 L 2010.767 1121.855 Q 2013.753 1117.699 2019.121 1115.362 L 2019.121 1115.362 L 2019.121 1115.362 Q 2024.488 1113.024 2031.847 1113.024 L 2031.847 1113.024 L 2031.847 1113.024 Q 2037.821 1113.024 2042.366 1114.583 L 2042.366 1114.583 L 2042.366 1114.583 Q 2046.911 1116.141 2050.027 1118.738 L 2050.027 1118.738 L 2050.027 1118.738 Q 2053.144 1121.335 2054.746 1124.236 L 2054.746 1124.236 L 2054.746 1124.236 Q 2056.347 1127.136 2056.434 1129.906 L 2056.434 1129.906 L 2056.434 1129.906 Q 2056.434 1130.599 2055.958 1131.161 L 2055.958 1131.161 L 2055.958 1131.161 Q 2055.482 1131.724 2054.616 1131.724 L 2054.616 1131.724 L 2043.188 1131.724 L 2043.188 1131.724 Q 2042.236 1131.724 2041.543 1131.378 L 2041.543 1131.378 L 2041.543 1131.378 Q 2040.851 1131.032 2040.331 1130.252 L 2040.331 1130.252 L 2040.331 1130.252 Q 2039.812 1128.348 2037.604 1126.919 L 2037.604 1126.919 L 2037.604 1126.919 Q 2035.397 1125.491 2031.847 1125.491 L 2031.847 1125.491 L 2031.847 1125.491 Q 2028.038 1125.491 2025.917 1126.833 L 2025.917 1126.833 L 2025.917 1126.833 Q 2023.796 1128.175 2023.796 1130.945 L 2023.796 1130.945 L 2023.796 1130.945 Q 2023.796 1132.676 2024.965 1133.975 L 2024.965 1133.975 L 2024.965 1133.975 Q 2026.133 1135.274 2028.86 1136.226 L 2028.86 1136.226 L 2028.86 1136.226 Q 2031.587 1137.178 2036.349 1138.217 L 2036.349 1138.217 L 2036.349 1138.217 Q 2044.227 1139.689 2049.075 1141.896 L 2049.075 1141.896 L 2049.075 1141.896 Q 2053.923 1144.104 2056.217 1147.61 L 2056.217 1147.61 L 2056.217 1147.61 Q 2058.512 1151.116 2058.512 1156.397 L 2058.512 1156.397 L 2058.512 1156.397 Q 2058.512 1162.284 2055.135 1166.526 L 2055.135 1166.526 L 2055.135 1166.526 Q 2051.759 1170.768 2045.915 1173.063 L 2045.915 1173.063 L 2045.915 1173.063 Q 2040.072 1175.357 2032.367 1175.357 Z " fill="rgb(255,255,255)"/></g></g></svg>