<?xml version="1.0" encoding="UTF-8" standalone="no"?><!-- Generator: Gravit.io --><svg xmlns="http://www.w3.org/2000/svg" xmlns:xlink="http://www.w3.org/1999/xlink" style="isolation:isolate" viewBox="674.065 875 340.157 300.357" width="340.157pt" height="300.357pt"><g><path d=" M 1013.105 950.22 C 1012.913 948.285 1012.672 946.357 1012.371 944.427 C 1011.51 939.125 1010.4 933.945 1008.92 928.889 C 1007.441 923.709 1005.343 918.778 1002.876 913.968 C 1000.658 909.406 997.822 905.088 994.615 901.142 C 991.409 897.072 987.709 893.498 983.64 890.413 C 979.201 887.085 974.514 884.249 969.458 881.905 C 964.401 879.685 958.978 877.959 953.55 876.972 C 946.644 875.615 939.493 875 932.464 875 C 925.436 875 918.405 875.615 911.5 876.972 C 906.074 877.959 900.771 879.685 895.715 881.905 C 890.658 884.249 885.851 887.085 881.532 890.413 C 877.466 893.498 873.64 897.072 870.435 901.142 C 867.353 905.088 864.517 909.406 862.173 913.968 C 859.706 918.778 857.735 923.709 856.255 928.889 C 854.652 933.945 853.54 939.125 852.801 944.427 C 851.937 949.976 851.445 955.525 851.322 961.197 C 851.322 964.035 851.199 966.748 851.075 969.584 C 851.075 972.543 850.952 975.625 850.952 978.71 C 850.952 978.833 850.952 978.833 850.952 978.833 L 850.952 996.959 C 850.952 996.959 850.952 996.959 850.952 996.959 C 850.952 1000.044 851.075 1003.003 851.075 1005.962 C 851.199 1008.675 851.322 1011.265 851.322 1013.978 C 851.568 1019.65 852.06 1025.198 852.924 1030.873 C 853.663 1036.053 854.773 1041.106 856.132 1046.163 C 857.611 1051.343 859.46 1056.399 861.927 1061.209 C 864.268 1065.771 866.983 1070.087 870.189 1074.156 C 873.394 1078.225 877.094 1081.925 881.163 1085.007 C 885.602 1088.461 890.412 1091.297 895.346 1093.518 C 900.525 1095.862 905.825 1097.464 911.254 1098.574 C 918.282 1099.808 925.31 1100.423 932.464 1100.423 L 932.464 1100.423 C 939.616 1100.423 946.77 1099.808 953.798 1098.449 C 959.347 1097.464 964.65 1095.862 969.706 1093.518 C 974.763 1091.297 979.571 1088.338 983.886 1085.007 C 987.955 1081.802 991.656 1078.225 994.863 1074.033 C 997.945 1070.087 1000.658 1065.771 1002.999 1061.209 C 1005.469 1056.399 1007.441 1051.466 1008.92 1046.286 C 1010.4 1041.232 1011.51 1036.053 1012.371 1030.75 C 1013.235 1025.198 1013.605 1019.65 1013.728 1013.978 C 1013.854 1011.265 1013.977 1008.675 1013.977 1005.962 C 1014.1 1003.003 1014.1 1000.044 1014.223 996.959 C 1014.223 996.959 1014.223 996.959 1014.223 996.959 L 1014.223 978.833 C 1014.223 978.833 1014.223 978.833 1014.223 978.71 C 1014.204 978.247 1014.189 977.783 1014.176 977.32 L 977.84 958.44 Q 977.963 960.762 977.992 963.171 L 977.992 963.171 L 977.992 963.171 Q 978.583 971.163 978.583 979.302 L 978.583 979.302 L 978.583 979.302 Q 978.583 987.441 978.583 995.579 L 978.583 995.579 L 978.583 995.579 Q 978.583 1003.718 977.992 1012.302 L 977.992 1012.302 L 977.992 1012.302 Q 977.696 1038.642 966.595 1053.736 L 966.595 1053.736 L 966.595 1053.736 Q 955.498 1068.83 932.415 1068.83 L 932.415 1068.83 L 932.415 1068.83 L 932.415 1068.83 Q 909.918 1068.83 898.674 1053.736 L 898.674 1053.736 L 898.674 1053.736 Q 887.427 1038.642 886.835 1012.302 L 886.835 1012.302 L 886.835 1012.302 Q 886.835 1003.718 886.689 995.579 L 886.689 995.579 L 886.689 995.579 Q 886.539 987.441 886.689 979.302 L 886.689 979.302 L 886.689 979.302 Q 886.835 971.163 886.835 963.171 L 886.835 963.171 L 886.835 963.171 Q 887.427 937.423 898.525 921.884 L 898.525 921.884 L 898.525 921.884 Q 909.625 906.347 932.415 906.347 L 932.415 906.347 L 932.415 906.347 Q 955.498 906.347 966.595 921.884 L 966.595 921.884 L 966.595 921.884 Q 968.661 924.775 970.351 928.017 L 1013.105 950.22 Z " fill-rule="evenodd" fill="rgb(0,0,0)"/><path d=" M 753.357 1027.296 L 715.992 1079.212 L 715.13 1081.184 C 715.13 1081.184 715.13 1081.184 715.13 1081.184 C 714.635 1081.925 714.389 1082.789 714.266 1083.651 C 714.02 1084.515 714.02 1085.379 714.02 1086.241 C 714.02 1087.843 714.266 1089.449 714.758 1090.805 C 715.253 1092.285 716.115 1093.641 717.102 1094.874 C 718.212 1096.108 719.569 1097.215 721.171 1097.956 C 722.651 1098.572 724.379 1098.944 726.105 1098.944 L 742.01 1098.944 C 744.108 1098.944 746.082 1098.572 747.931 1097.956 C 749.78 1097.341 751.508 1096.231 752.739 1094.751 C 753.48 1094.01 754.221 1093.272 754.959 1092.408 C 755.454 1091.913 755.947 1091.297 756.316 1090.679 C 756.439 1090.679 756.439 1090.556 756.565 1090.433 L 813.661 1010.896 C 813.661 1010.772 813.784 1010.772 813.784 1010.647 C 815.263 1008.306 816.743 1006.085 818.222 1003.741 C 819.948 1001.029 821.551 998.316 823.279 995.726 C 825.005 992.89 826.607 989.931 827.964 986.849 C 829.569 983.518 830.925 979.941 832.282 976.49 C 833.512 972.79 834.5 968.966 835.118 965.143 C 835.733 960.828 836.102 956.512 836.102 952.197 C 836.102 947.509 835.733 942.699 834.869 938.014 C 834.007 933.327 832.774 928.765 831.171 924.327 C 829.443 919.886 827.348 915.57 824.758 911.501 C 822.169 907.309 819.084 903.362 815.633 899.785 C 812.179 896.211 808.232 893.003 804.163 890.29 C 799.601 887.331 794.791 884.741 789.858 882.77 C 784.804 880.672 779.501 879.193 774.198 878.205 C 767.785 877.095 761.249 876.48 754.836 876.48 C 748.3 876.48 741.767 877.095 735.354 878.328 C 729.925 879.316 724.625 880.918 719.692 883.016 C 714.635 885.234 709.825 887.823 705.386 890.908 C 701.317 893.744 697.494 897.072 694.166 900.649 C 690.837 904.226 687.876 908.173 685.286 912.365 C 682.696 916.434 680.599 920.75 678.996 925.188 C 677.393 929.63 676.16 934.191 675.299 938.878 C 674.434 943.44 674.065 948.127 674.065 952.812 C 674.065 957.623 674.434 962.307 675.299 966.995 C 676.16 971.679 677.517 976.12 679.245 980.559 C 680.847 984.874 683.068 989.067 685.532 993.013 C 688.122 997.082 691.081 1000.782 694.412 1004.236 C 697.74 1007.811 701.44 1010.896 705.386 1013.608 C 709.579 1016.444 714.02 1018.911 718.828 1020.883 C 723.515 1022.98 728.446 1024.46 733.502 1025.447 C 739.051 1026.678 744.849 1027.296 750.644 1027.296 C 751.508 1027.296 752.495 1027.296 753.357 1027.296 Z  M 754.787 997.205 L 754.787 997.205 L 754.787 997.205 Q 767.217 997.205 777.723 991.73 L 777.723 991.73 L 777.723 991.73 Q 788.229 986.257 794.445 976.34 L 794.445 976.34 L 794.445 976.34 Q 800.659 966.426 800.659 952.516 L 800.659 952.516 L 800.659 952.516 Q 800.659 938.606 794.445 928.692 L 794.445 928.692 L 794.445 928.692 Q 788.229 918.778 777.723 913.303 L 777.723 913.303 L 777.723 913.303 Q 767.217 907.827 754.787 907.827 L 754.787 907.827 L 754.787 907.827 Q 742.652 907.827 732.293 913.303 L 732.293 913.303 L 732.293 913.303 Q 721.933 918.778 715.719 928.692 L 715.719 928.692 L 715.719 928.692 Q 709.505 938.606 709.505 952.516 L 709.505 952.516 L 709.505 952.516 Q 709.505 966.426 715.719 976.34 L 715.719 976.34 L 715.719 976.34 Q 721.933 986.257 732.293 991.73 L 732.293 991.73 L 732.293 991.73 Q 742.652 997.205 754.787 997.205 Z " fill-rule="evenodd" fill="rgb(0,0,0)"/><path d=" M 722.336 1175.357 L 722.336 1175.357 L 722.336 1175.357 Q 714.111 1175.357 708.181 1172.63 L 708.181 1172.63 L 708.181 1172.63 Q 702.251 1169.903 699.004 1164.665 L 699.004 1164.665 L 699.004 1164.665 Q 695.758 1159.427 695.412 1151.896 L 695.412 1151.896 L 695.412 1151.896 Q 695.325 1148.173 695.325 1143.974 L 695.325 1143.974 L 695.325 1143.974 Q 695.325 1139.775 695.412 1135.966 L 695.412 1135.966 L 695.412 1135.966 Q 695.758 1128.607 699.048 1123.5 L 699.048 1123.5 L 699.048 1123.5 Q 702.337 1118.392 708.311 1115.708 L 708.311 1115.708 L 708.311 1115.708 Q 714.284 1113.024 722.336 1113.024 L 722.336 1113.024 L 722.336 1113.024 Q 728.829 1113.024 733.85 1114.626 L 733.85 1114.626 L 733.85 1114.626 Q 738.871 1116.228 742.291 1118.911 L 742.291 1118.911 L 742.291 1118.911 Q 745.71 1121.595 747.528 1124.798 L 747.528 1124.798 L 747.528 1124.798 Q 749.346 1128.001 749.433 1131.118 L 749.433 1131.118 L 749.433 1131.118 Q 749.433 1131.897 748.87 1132.417 L 748.87 1132.417 L 748.87 1132.417 Q 748.308 1132.936 747.528 1132.936 L 747.528 1132.936 L 734.889 1132.936 L 734.889 1132.936 Q 733.937 1132.936 733.46 1132.633 L 733.46 1132.633 L 733.46 1132.633 Q 732.984 1132.33 732.638 1131.724 L 732.638 1131.724 L 732.638 1131.724 Q 732.032 1130.426 730.863 1128.997 L 730.863 1128.997 L 730.863 1128.997 Q 729.695 1127.569 727.66 1126.53 L 727.66 1126.53 L 727.66 1126.53 Q 725.626 1125.491 722.336 1125.491 L 722.336 1125.491 L 722.336 1125.491 Q 717.488 1125.491 714.631 1128.088 L 714.631 1128.088 L 714.631 1128.088 Q 711.774 1130.685 711.514 1136.399 L 711.514 1136.399 L 711.514 1136.399 Q 711.255 1143.844 711.514 1151.463 L 711.514 1151.463 L 711.514 1151.463 Q 711.774 1157.523 714.717 1160.207 L 714.717 1160.207 L 714.717 1160.207 Q 717.661 1162.89 722.595 1162.89 L 722.595 1162.89 L 722.595 1162.89 Q 725.799 1162.89 728.352 1161.765 L 728.352 1161.765 L 728.352 1161.765 Q 730.906 1160.639 732.378 1158.259 L 732.378 1158.259 L 732.378 1158.259 Q 733.85 1155.878 733.85 1152.155 L 733.85 1152.155 L 733.85 1150.51 L 725.712 1150.51 L 725.712 1150.51 Q 724.76 1150.51 724.154 1149.861 L 724.154 1149.861 L 724.154 1149.861 Q 723.548 1149.212 723.548 1148.26 L 723.548 1148.26 L 723.548 1141.853 L 723.548 1141.853 Q 723.548 1140.901 724.154 1140.252 L 724.154 1140.252 L 724.154 1140.252 Q 724.76 1139.602 725.712 1139.602 L 725.712 1139.602 L 747.528 1139.602 L 747.528 1139.602 Q 748.481 1139.602 749.087 1140.252 L 749.087 1140.252 L 749.087 1140.252 Q 749.693 1140.901 749.693 1141.853 L 749.693 1141.853 L 749.693 1151.722 L 749.693 1151.722 Q 749.693 1159.168 746.316 1164.449 L 746.316 1164.449 L 746.316 1164.449 Q 742.94 1169.73 736.75 1172.543 L 736.75 1172.543 L 736.75 1172.543 Q 730.56 1175.357 722.336 1175.357 Z  M 772.981 1174.491 L 761.813 1174.491 L 761.813 1174.491 Q 760.861 1174.491 760.255 1173.842 L 760.255 1173.842 L 760.255 1173.842 Q 759.649 1173.193 759.649 1172.327 L 759.649 1172.327 L 759.649 1116.054 L 759.649 1116.054 Q 759.649 1115.102 760.255 1114.496 L 760.255 1114.496 L 760.255 1114.496 Q 760.861 1113.89 761.813 1113.89 L 761.813 1113.89 L 785.361 1113.89 L 785.361 1113.89 Q 796.615 1113.89 803.022 1119.041 L 803.022 1119.041 L 803.022 1119.041 Q 809.428 1124.192 809.428 1133.629 L 809.428 1133.629 L 809.428 1133.629 Q 809.428 1139.775 806.485 1144.017 L 806.485 1144.017 L 806.485 1144.017 Q 803.541 1148.26 798.693 1150.424 L 798.693 1150.424 L 810.553 1171.721 L 810.553 1171.721 Q 810.813 1172.24 810.813 1172.673 L 810.813 1172.673 L 810.813 1172.673 Q 810.813 1173.366 810.25 1173.928 L 810.25 1173.928 L 810.25 1173.928 Q 809.688 1174.491 808.995 1174.491 L 808.995 1174.491 L 797.481 1174.491 L 797.481 1174.491 Q 795.836 1174.491 795.057 1173.669 L 795.057 1173.669 L 795.057 1173.669 Q 794.278 1172.846 793.931 1172.154 L 793.931 1172.154 L 784.062 1153.108 L 775.232 1153.108 L 775.232 1172.327 L 775.232 1172.327 Q 775.232 1173.193 774.582 1173.842 L 774.582 1173.842 L 774.582 1173.842 Q 773.933 1174.491 772.981 1174.491 L 772.981 1174.491 Z  M 775.232 1125.924 L 775.232 1140.814 L 785.188 1140.814 L 785.188 1140.814 Q 789.256 1140.814 791.291 1138.823 L 791.291 1138.823 L 791.291 1138.823 Q 793.326 1136.832 793.326 1133.456 L 793.326 1133.456 L 793.326 1133.456 Q 793.326 1130.079 791.378 1128.001 L 791.378 1128.001 L 791.378 1128.001 Q 789.43 1125.924 785.188 1125.924 L 785.188 1125.924 L 775.232 1125.924 Z  M 826.656 1174.491 L 816.008 1174.491 L 816.008 1174.491 Q 815.315 1174.491 814.752 1173.928 L 814.752 1173.928 L 814.752 1173.928 Q 814.19 1173.366 814.19 1172.673 L 814.19 1172.673 L 814.19 1172.673 Q 814.19 1172.24 814.276 1171.894 L 814.276 1171.894 L 834.621 1116.314 L 834.621 1116.314 Q 834.881 1115.362 835.703 1114.626 L 835.703 1114.626 L 835.703 1114.626 Q 836.525 1113.89 837.997 1113.89 L 837.997 1113.89 L 850.81 1113.89 L 850.81 1113.89 Q 852.282 1113.89 853.104 1114.626 L 853.104 1114.626 L 853.104 1114.626 Q 853.927 1115.362 854.186 1116.314 L 854.186 1116.314 L 874.444 1171.894 L 874.444 1171.894 Q 874.618 1172.24 874.618 1172.673 L 874.618 1172.673 L 874.618 1172.673 Q 874.618 1173.366 874.055 1173.928 L 874.055 1173.928 L 874.055 1173.928 Q 873.492 1174.491 872.713 1174.491 L 872.713 1174.491 L 862.065 1174.491 L 862.065 1174.491 Q 860.766 1174.491 860.117 1173.842 L 860.117 1173.842 L 860.117 1173.842 Q 859.467 1173.193 859.294 1172.673 L 859.294 1172.673 L 855.918 1163.843 L 832.803 1163.843 L 829.513 1172.673 L 829.513 1172.673 Q 829.34 1173.193 828.734 1173.842 L 828.734 1173.842 L 828.734 1173.842 Q 828.128 1174.491 826.656 1174.491 L 826.656 1174.491 Z  M 844.404 1128.521 L 836.352 1151.376 L 852.455 1151.376 L 844.404 1128.521 Z  M 906.909 1175.357 L 906.909 1175.357 L 906.909 1175.357 Q 899.031 1175.357 893.187 1172.803 L 893.187 1172.803 L 893.187 1172.803 Q 887.344 1170.249 884.14 1164.925 L 884.14 1164.925 L 884.14 1164.925 Q 880.937 1159.601 880.937 1151.376 L 880.937 1151.376 L 880.937 1116.054 L 880.937 1116.054 Q 880.937 1115.102 881.544 1114.496 L 881.544 1114.496 L 881.544 1114.496 Q 882.149 1113.89 883.102 1113.89 L 883.102 1113.89 L 894.27 1113.89 L 894.27 1113.89 Q 895.222 1113.89 895.871 1114.496 L 895.871 1114.496 L 895.871 1114.496 Q 896.52 1115.102 896.52 1116.054 L 896.52 1116.054 L 896.52 1151.29 L 896.52 1151.29 Q 896.52 1156.917 899.204 1159.73 L 899.204 1159.73 L 899.204 1159.73 Q 901.888 1162.544 906.823 1162.544 L 906.823 1162.544 L 906.823 1162.544 Q 911.671 1162.544 914.398 1159.73 L 914.398 1159.73 L 914.398 1159.73 Q 917.125 1156.917 917.125 1151.29 L 917.125 1151.29 L 917.125 1116.054 L 917.125 1116.054 Q 917.125 1115.102 917.774 1114.496 L 917.774 1114.496 L 917.774 1114.496 Q 918.423 1113.89 919.289 1113.89 L 919.289 1113.89 L 930.544 1113.89 L 930.544 1113.89 Q 931.409 1113.89 932.059 1114.496 L 932.059 1114.496 L 932.059 1114.496 Q 932.708 1115.102 932.708 1116.054 L 932.708 1116.054 L 932.708 1151.376 L 932.708 1151.376 Q 932.708 1159.601 929.505 1164.925 L 929.505 1164.925 L 929.505 1164.925 Q 926.302 1170.249 920.501 1172.803 L 920.501 1172.803 L 920.501 1172.803 Q 914.701 1175.357 906.909 1175.357 Z  M 966.818 1175.357 L 966.818 1175.357 L 966.818 1175.357 Q 958.16 1175.357 952.447 1172.89 L 952.447 1172.89 L 952.447 1172.89 Q 946.733 1170.422 943.789 1166.44 L 943.789 1166.44 L 943.789 1166.44 Q 940.846 1162.458 940.673 1157.956 L 940.673 1157.956 L 940.673 1157.956 Q 940.673 1157.263 941.235 1156.7 L 941.235 1156.7 L 941.235 1156.7 Q 941.798 1156.138 942.577 1156.138 L 942.577 1156.138 L 953.485 1156.138 L 953.485 1156.138 Q 954.698 1156.138 955.347 1156.571 L 955.347 1156.571 L 955.347 1156.571 Q 955.996 1157.003 956.516 1157.696 L 956.516 1157.696 L 956.516 1157.696 Q 957.208 1158.995 958.463 1160.207 L 958.463 1160.207 L 958.463 1160.207 Q 959.719 1161.419 961.796 1162.154 L 961.796 1162.154 L 961.796 1162.154 Q 963.874 1162.89 966.818 1162.89 L 966.818 1162.89 L 966.818 1162.89 Q 971.839 1162.89 974.393 1161.332 L 974.393 1161.332 L 974.393 1161.332 Q 976.947 1159.774 976.947 1157.09 L 976.947 1157.09 L 976.947 1157.09 Q 976.947 1155.099 975.562 1153.887 L 975.562 1153.887 L 975.562 1153.887 Q 974.177 1152.675 971.103 1151.679 L 971.103 1151.679 L 971.103 1151.679 Q 968.03 1150.684 962.922 1149.645 L 962.922 1149.645 L 962.922 1149.645 Q 956.342 1148.26 951.711 1146.052 L 951.711 1146.052 L 951.711 1146.052 Q 947.079 1143.844 944.655 1140.252 L 944.655 1140.252 L 944.655 1140.252 Q 942.231 1136.659 942.231 1131.291 L 942.231 1131.291 L 942.231 1131.291 Q 942.231 1126.01 945.218 1121.855 L 945.218 1121.855 L 945.218 1121.855 Q 948.205 1117.699 953.572 1115.362 L 953.572 1115.362 L 953.572 1115.362 Q 958.94 1113.024 966.298 1113.024 L 966.298 1113.024 L 966.298 1113.024 Q 972.272 1113.024 976.817 1114.583 L 976.817 1114.583 L 976.817 1114.583 Q 981.362 1116.141 984.479 1118.738 L 984.479 1118.738 L 984.479 1118.738 Q 987.595 1121.335 989.197 1124.236 L 989.197 1124.236 L 989.197 1124.236 Q 990.799 1127.136 990.885 1129.906 L 990.885 1129.906 L 990.885 1129.906 Q 990.885 1130.599 990.409 1131.161 L 990.409 1131.161 L 990.409 1131.161 Q 989.933 1131.724 989.067 1131.724 L 989.067 1131.724 L 977.639 1131.724 L 977.639 1131.724 Q 976.687 1131.724 975.995 1131.378 L 975.995 1131.378 L 975.995 1131.378 Q 975.302 1131.032 974.782 1130.252 L 974.782 1130.252 L 974.782 1130.252 Q 974.263 1128.348 972.056 1126.919 L 972.056 1126.919 L 972.056 1126.919 Q 969.848 1125.491 966.298 1125.491 L 966.298 1125.491 L 966.298 1125.491 Q 962.489 1125.491 960.368 1126.833 L 960.368 1126.833 L 960.368 1126.833 Q 958.247 1128.175 958.247 1130.945 L 958.247 1130.945 L 958.247 1130.945 Q 958.247 1132.676 959.416 1133.975 L 959.416 1133.975 L 959.416 1133.975 Q 960.584 1135.274 963.312 1136.226 L 963.312 1136.226 L 963.312 1136.226 Q 966.038 1137.178 970.8 1138.217 L 970.8 1138.217 L 970.8 1138.217 Q 978.678 1139.689 983.526 1141.896 L 983.526 1141.896 L 983.526 1141.896 Q 988.374 1144.104 990.669 1147.61 L 990.669 1147.61 L 990.669 1147.61 Q 992.963 1151.116 992.963 1156.397 L 992.963 1156.397 L 992.963 1156.397 Q 992.963 1162.284 989.586 1166.526 L 989.586 1166.526 L 989.586 1166.526 Q 986.21 1170.768 980.367 1173.063 L 980.367 1173.063 L 980.367 1173.063 Q 974.523 1175.357 966.818 1175.357 Z " fill="rgb(0,0,0)"/></g></svg>