<?xml version="1.0" encoding="UTF-8" standalone="no"?><!-- Generator: Gravit.io --><svg xmlns="http://www.w3.org/2000/svg" xmlns:xlink="http://www.w3.org/1999/xlink" style="isolation:isolate" viewBox="0 0 2560 6500" width="2560pt" height="6500pt"><path d=" M 0 0 L 259.975 0 L 212 160.469 L 184.438 429.589 L 154.007 466.829 L 132 635.568 L 147 737.827 L 133 853.734 L 132.567 1174.601 L 117.502 1297.408 L 113 1336.686 L 77.953 1352.372 L 60 1371.323 L 78 1547.376 L 42.57 1852.197 L 53.918 1911.174 L 72 2005.959 L 82.579 2055.667 L 60 2117.401 L 72 2335.475 L 103 2430.103 L 183.599 2492.319 L 144.599 3291.446 L 114 3395.38 L 183 3906.791 L 139 3997.941 L 106 4311 L 108.269 4696 L 130 4961 L 95.418 5333 L 103 5480 L 78 5689 L 60 5817 L 72 5998 L 37 6147 L 25 6277 L 43 6421.44 L 203 6433.44 L 252 6434.44 L 346.97 6449.12 L 580.303 6449.44 L 648.986 6437.544 L 742.909 6446.877 L 778.788 6439.98 L 1003.788 6433.163 L 1131.818 6421.44 L 1371.212 6430.544 L 1446.97 6439.44 L 1672.053 6421.44 L 2052.854 6445.12 L 2146.5 6434.167 L 2325.769 6449.44 L 2491.532 6472.978 L 2560 6500 L 0 6500 L 0 0 Z " fill="rgb(255,255,255)"/></svg>