<?xml version="1.0" encoding="UTF-8" standalone="no"?><!-- Generator: Gravit.io --><svg xmlns="http://www.w3.org/2000/svg" xmlns:xlink="http://www.w3.org/1999/xlink" style="isolation:isolate" viewBox="0 0 1920 6500" width="1920pt" height="6500pt"><path d=" M 0 511.304 L 183.599 510.71 L 305.641 494.732 L 317.141 509.342 L 317.141 562.963 L 266 666 L 252 778 L 217.731 853.734 L 183 1174.601 L 164.935 1297.408 L 160.433 1336.686 L 77.953 1352.372 L 60 1371.323 L 78 1547.376 L 42.57 1852.197 L 53.918 1911.174 L 72 2005.959 L 82.579 2055.667 L 60 2117.401 L 72 2335.475 L 103 2430.103 L 183.599 2492.319 L 144.599 3291.446 L 114 3395.38 L 183 3906.791 L 139 3997.941 L 106 4311 L 108.269 4696 L 130 4961 L 95.418 5333 L 103 5480 L 78 5689 L 60 5817 L 72 5998 L 37 6147 L 25 6277 L 43 6439 L 203 6451 L 252 6452 L 346.97 6466.68 L 580.303 6467 L 648.986 6455.104 L 742.909 6464.437 L 778.788 6457.54 L 1003.788 6450.724 L 1131.818 6439 L 1371.212 6455.104 L 1446.97 6464 L 1711.173 6477.68 L 1804.82 6460.727 L 1833.031 6458.56 L 1920 6500 L 0 6500 L 0 511.304 Z " fill="rgb(0,0,0)"/></svg>