<?xml version="1.0" encoding="UTF-8" standalone="no"?><!-- Generator: Gravit.io --><svg xmlns="http://www.w3.org/2000/svg" xmlns:xlink="http://www.w3.org/1999/xlink" style="isolation:isolate" viewBox="0 0 1920 6500" width="1920pt" height="6500pt"><path d=" M 1920 511.304 L 1736.401 510.71 L 1614.359 494.732 L 1602.859 509.342 L 1602.859 562.963 L 1654 666 L 1668 778 L 1702.269 853.734 L 1737 1174.601 L 1755.065 1297.408 L 1759.567 1336.686 L 1842.047 1352.372 L 1860 1371.323 L 1842 1547.376 L 1877.43 1852.197 L 1866.082 1911.174 L 1848 2005.959 L 1837.421 2055.667 L 1860 2117.401 L 1848 2335.475 L 1817 2430.103 L 1736.401 2492.319 L 1775.401 3291.446 L 1806 3395.38 L 1737 3906.791 L 1781 3997.941 L 1814 4311 L 1811.731 4696 L 1790 4961 L 1824.582 5333 L 1817 5480 L 1842 5689 L 1860 5817 L 1848 5998 L 1883 6147 L 1895 6277 L 1877 6439 L 1717 6451 L 1668 6452 L 1573.03 6466.68 L 1339.697 6467 L 1271.014 6455.104 L 1177.091 6464.437 L 1141.212 6457.54 L 916.212 6450.724 L 788.182 6439 L 548.788 6455.104 L 473.03 6464 L 208.827 6477.68 L 115.18 6460.727 L 86.969 6458.56 L 0 6500 L 1920 6500 L 1920 511.304 Z " fill="rgb(0,0,0)"/></svg>