<?xml version="1.0" encoding="UTF-8" standalone="no"?><!-- Generator: Gravit.io --><svg xmlns="http://www.w3.org/2000/svg" xmlns:xlink="http://www.w3.org/1999/xlink" style="isolation:isolate" viewBox="0 0 1920 6500" width="1920pt" height="6500pt"><path d=" M 0 511.304 L 183.599 510.71 L 305.641 494.732 L 317.141 509.342 L 317.141 562.963 L 266 666 L 252 778 L 217.731 853.734 L 183 1174.601 L 164.935 1297.408 L 160.433 1336.686 L 77.953 1352.372 L 60 1371.323 L 78 1547.376 L 42.57 1852.197 L 53.918 1911.174 L 72 2005.959 L 82.579 2055.667 L 60 2117.401 L 72 2335.475 L 103 2430.103 L 183.599 2492.319 L 144.599 3291.446 L 114 3395.38 L 183 3906.791 L 139 3997.941 L 106 4311 L 108.269 4696 L 130 4961 L 95.418 5333 L 103 5480 L 78 5689 L 60 5817 L 72 5998 L 37 6147 L 25 6277 L 43 6439 L 203 6451 L 252 6452 L 346.97 6466.68 L 580.303 6467 L 648.986 6455.104 L 742.909 6464.437 L 778.788 6457.54 L 1003.788 6450.724 L 1131.818 6439 L 1371.212 6455.104 L 1446.97 6464 L 1711.173 6477.68 L 1804.82 6460.727 L 1833.031 6458.56 L 1920 6500 L 0 6500 L 0 511.304 Z " fill="rgb(255,255,255)"/><path d=" M 177.459 1365.176 C 177.338 1365.035 176.927 1364.684 176.535 1364.383 C 175.431 1363.55 174.548 1363.429 173.063 1363.921 C 172.701 1364.041 172.28 1364.162 172.109 1364.182 C 171.949 1364.212 171.738 1364.262 171.657 1364.292 C 171.577 1364.322 171.437 1364.363 171.356 1364.373 C 170.754 1364.463 170.001 1364.634 169.911 1364.714 C 169.851 1364.764 169.52 1364.884 169.168 1364.975 L 168.536 1365.135 L 168.114 1364.814 C 167.602 1364.423 167.04 1363.841 167.04 1363.71 C 167.04 1363.66 167 1363.62 166.94 1363.62 C 166.83 1363.62 165.334 1361.371 165.334 1361.211 C 165.334 1361.151 165.294 1361.111 165.244 1361.111 C 165.194 1361.111 165.133 1360.96 165.093 1360.789 C 164.993 1360.277 164.551 1359.434 164.26 1359.203 C 164.12 1359.093 163.919 1358.832 163.818 1358.631 C 163.718 1358.421 163.357 1357.959 163.026 1357.608 C 162.694 1357.256 162.423 1356.925 162.423 1356.885 C 162.423 1356.845 162.363 1356.744 162.303 1356.674 C 161.972 1356.323 161.58 1355.49 161.48 1354.938 C 161.4 1354.526 161.369 1354.496 160.085 1353.322 C 159.533 1352.81 159.332 1352.699 158.95 1352.639 C 158.459 1352.579 158.107 1352.699 158.107 1352.93 C 158.107 1353.011 158.017 1353.221 157.907 1353.412 C 157.626 1353.894 157.335 1354.702 157.244 1356.137 C 157.214 1356.669 157.164 1357.311 157.144 1357.562 C 157.114 1357.894 157.144 1358.074 157.274 1358.245 C 157.836 1358.988 158.037 1359.951 157.706 1360.333 L 157.505 1360.563 L 157.284 1360.353 C 157.154 1360.232 156.983 1360.142 156.893 1360.142 C 156.803 1360.142 156.622 1360.032 156.491 1359.891 C 156.281 1359.67 156.271 1359.59 156.331 1358.847 C 156.371 1358.275 156.351 1357.914 156.251 1357.613 C 156.07 1357.04 156.11 1356.318 156.09 1355.926 C 156.08 1355.615 156.115 1354.004 156.326 1353.412 C 156.697 1352.318 157.033 1351.957 157.124 1351.093 C 157.234 1350.009 157.254 1349.979 158.258 1349.287 C 158.318 1349.247 158.529 1349.016 158.73 1348.765 C 159.041 1348.373 159.081 1348.253 159.051 1347.872 C 159.001 1347.229 158.73 1346.848 158.148 1346.577 C 157.475 1346.256 157.304 1346.075 157.304 1345.714 C 157.304 1345.533 157.224 1345.232 157.114 1345.021 C 156.963 1344.73 156.953 1344.61 157.043 1344.429 C 157.114 1344.298 157.174 1344.047 157.184 1343.867 C 157.224 1343.275 157.455 1343.054 158.459 1342.682 C 158.69 1342.602 159.242 1342.522 159.623 1342.512 C 159.774 1342.512 160.034 1342.612 160.205 1342.733 C 160.607 1343.024 160.717 1342.943 160.607 1342.472 C 160.556 1342.261 160.486 1341.869 160.456 1341.608 C 160.426 1341.347 160.346 1340.986 160.275 1340.805 C 160.195 1340.625 160.085 1340.233 160.014 1339.932 C 159.944 1339.631 159.854 1339.34 159.814 1339.28 C 159.774 1339.23 159.703 1339.019 159.663 1338.828 C 159.593 1338.507 159.462 1338.166 159.181 1337.543 C 159.121 1337.413 158.93 1337.252 158.77 1337.162 C 158.509 1337.042 157.927 1336.339 158.027 1336.279 C 158.268 1336.128 159.121 1335.817 159.312 1335.807 C 159.984 1335.767 159.984 1335.767 160.165 1336.6 C 160.265 1337.021 160.396 1337.483 160.466 1337.624 C 160.536 1337.764 160.617 1338.045 160.657 1338.246 C 160.697 1338.447 160.787 1338.748 160.868 1338.898 C 160.948 1339.049 161.018 1339.25 161.018 1339.33 C 161.018 1339.41 161.108 1339.621 161.209 1339.792 C 161.309 1339.962 161.54 1340.725 161.721 1341.498 C 161.901 1342.261 162.092 1342.903 162.142 1342.923 C 162.182 1342.943 162.223 1343.044 162.223 1343.144 C 162.223 1343.244 162.273 1343.365 162.323 1343.395 C 162.383 1343.425 162.423 1343.546 162.423 1343.646 C 162.423 1343.746 162.534 1343.967 162.664 1344.128 C 162.805 1344.288 162.995 1344.73 163.086 1345.111 C 163.186 1345.493 163.287 1345.824 163.327 1345.854 C 163.357 1345.884 163.467 1346.266 163.568 1346.707 C 163.668 1347.149 163.839 1347.681 163.939 1347.892 C 164.049 1348.112 164.16 1348.534 164.18 1348.845 C 164.25 1349.618 164.33 1350.06 164.431 1350.26 C 164.481 1350.351 164.551 1350.632 164.581 1350.893 C 164.611 1351.154 164.682 1351.395 164.742 1351.425 C 164.792 1351.465 164.832 1351.575 164.832 1351.686 C 164.832 1351.786 164.882 1351.876 164.933 1351.876 C 164.993 1351.876 165.033 1351.927 165.033 1351.997 C 165.033 1352.167 165.726 1352.75 166.087 1352.89 C 166.679 1353.111 167 1353.272 167.341 1353.502 C 167.532 1353.633 167.873 1353.824 168.094 1353.924 C 168.315 1354.024 168.626 1354.165 168.787 1354.245 C 168.947 1354.325 169.148 1354.386 169.218 1354.386 C 169.299 1354.386 169.489 1354.466 169.63 1354.566 C 169.991 1354.817 170.704 1355.088 170.985 1355.088 C 171.105 1355.088 171.366 1355.169 171.557 1355.269 C 171.748 1355.379 172.039 1355.49 172.199 1355.53 C 172.36 1355.57 172.631 1355.711 172.792 1355.851 C 172.952 1355.982 173.153 1356.092 173.233 1356.092 C 173.324 1356.092 173.474 1356.152 173.554 1356.222 C 173.645 1356.293 173.966 1356.413 174.267 1356.493 C 174.779 1356.614 175.813 1357.066 176.525 1357.487 C 176.937 1357.728 178.673 1358.651 179.587 1359.123 C 179.998 1359.334 180.51 1359.555 180.721 1359.605 C 181.183 1359.735 181.213 1359.996 180.791 1360.237 C 180.631 1360.338 180.49 1360.458 180.49 1360.498 C 180.49 1360.548 180.41 1360.609 180.319 1360.649 C 180.219 1360.679 180.059 1360.759 179.968 1360.829 C 179.828 1360.93 179.727 1360.87 179.266 1360.398 C 178.975 1360.097 178.603 1359.796 178.432 1359.735 C 178.272 1359.675 177.82 1359.515 177.429 1359.364 C 177.047 1359.224 176.566 1359.083 176.375 1359.063 C 176.184 1359.033 175.903 1358.973 175.763 1358.912 C 175.612 1358.862 175.472 1358.842 175.441 1358.862 C 175.361 1358.953 173.936 1358.31 173.565 1358.009 C 173.103 1357.648 172.731 1357.507 172.059 1357.437 C 171.507 1357.387 171.256 1357.377 170.302 1357.387 C 170.031 1357.397 169.69 1357.377 169.55 1357.337 C 169.078 1357.236 167.442 1357.196 167.191 1357.296 C 166.85 1357.427 166.779 1357.808 167 1358.28 C 167.101 1358.481 167.171 1358.692 167.161 1358.742 C 167.141 1358.782 167.291 1359.033 167.492 1359.284 C 167.753 1359.615 167.843 1359.836 167.843 1360.107 C 167.843 1360.348 167.944 1360.609 168.124 1360.87 C 168.275 1361.08 168.506 1361.472 168.636 1361.733 C 168.767 1361.994 168.978 1362.305 169.108 1362.425 C 169.429 1362.726 170.102 1362.777 170.895 1362.566 C 171.386 1362.425 171.708 1362.405 172.179 1362.455 C 172.912 1362.546 172.872 1362.546 173.494 1362.466 C 173.765 1362.435 174.147 1362.325 174.357 1362.225 C 174.92 1361.934 175.803 1361.653 176.004 1361.693 C 176.224 1361.743 176.475 1362.215 176.475 1362.616 C 176.475 1363.058 176.907 1363.841 177.318 1364.162 C 177.519 1364.312 177.68 1364.513 177.68 1364.613 C 177.68 1364.704 177.72 1364.824 177.77 1364.884 C 177.82 1364.935 177.89 1365.075 177.931 1365.206 C 178.021 1365.517 177.74 1365.497 177.459 1365.176 L 177.459 1365.176 Z " fill="rgb(255,255,255)"/></svg>